<svg width="32" height="32" viewBox="0 0 32 32" fill="none" xmlns="http://www.w3.org/2000/svg">
<path fill-rule="evenodd" clip-rule="evenodd" d="M21.074 3.21106C15.93 3.21106 15.147 4.86806 10.339 4.86806C8.51527 4.87286 6.70596 4.54482 5 3.90006L1 28.0001C3.33104 29.1984 5.91704 29.8159 8.538 29.8001C15.414 29.8001 16.586 27.2001 23.462 27.2001C25.997 27.1776 28.5262 27.4461 31 28.0001L27 3.90006C25.057 3.44723 23.069 3.21609 21.074 3.21106ZM23.462 26.2001C20.8126 26.1858 18.1818 26.6422 15.692 27.5481C13.4016 28.3895 10.979 28.8135 8.539 28.8001C6.32418 28.7951 4.13456 28.3299 2.109 27.4341L5.795 5.21706C7.26928 5.65694 8.80052 5.87632 10.339 5.86806C12.1874 5.8765 14.0253 5.59094 15.784 5.02206C17.4921 4.46829 19.2785 4.19475 21.074 4.21206C22.7701 4.22094 24.4613 4.39408 26.124 4.72906L29.775 26.7291C27.6895 26.3739 25.5775 26.1969 23.462 26.2001ZM21.074 6.21006C19.4659 6.19475 17.8662 6.44234 16.338 6.94306C14.3994 7.56466 12.3748 7.87682 10.339 7.86806C9.36172 7.86911 8.38594 7.79186 7.421 7.63706L4.348 26.1481C5.70364 26.5761 7.11639 26.796 8.538 26.8001C10.7698 26.8125 12.9855 26.4212 15.078 25.6451C17.7664 24.6759 20.6043 24.1868 23.462 24.2001C24.906 24.2001 26.222 24.2791 27.36 24.3901L24.383 6.45806C23.2872 6.29807 22.1814 6.21453 21.074 6.21006ZM10.34 8.86906C12.4697 8.88 14.5878 8.55466 16.616 7.90506C18.0544 7.43002 19.5613 7.19587 21.076 7.21206C21.8924 7.21382 22.708 7.26156 23.519 7.35506L25.453 19.0051C25.2155 19.0588 24.9734 19.0889 24.73 19.0951C24.339 19.0936 23.9509 19.0267 23.582 18.8971C22.4313 18.3868 21.4505 17.5582 20.755 16.5091C20.106 15.7131 19.494 14.6211 18.685 14.2041C18.2037 14.0024 17.6811 13.9194 17.161 13.9621C16.5274 14.0174 15.8915 13.8845 15.333 13.5801C14.8798 13.3357 14.5105 12.9608 14.273 12.5041C14.0901 11.9966 13.7503 11.5605 13.303 11.2591C12.9208 11.0774 12.501 10.9887 12.078 11.0001C10.4983 11.1218 8.9722 11.6271 7.632 12.4721L8.249 8.75606C8.94317 8.83065 9.64083 8.86803 10.339 8.86806L10.34 8.86906ZM23.462 23.2001C20.4991 23.1842 17.5566 23.6899 14.769 24.6941C12.7767 25.4392 10.665 25.814 8.538 25.8001C7.50776 25.7992 6.48138 25.6743 5.481 25.4281L7.452 13.5561L7.47 13.5811C8.84127 12.644 10.4256 12.0658 12.078 11.8991C12.3574 11.8886 12.6354 11.9434 12.89 12.0591C13.1511 12.2908 13.3505 12.584 13.47 12.9121C13.7805 13.5022 14.2516 13.9924 14.829 14.3261C15.533 14.7339 16.3436 14.92 17.155 14.8601C17.5307 14.8299 17.9086 14.8775 18.265 15.0001C18.913 15.3341 19.467 16.3541 20.055 17.0761C20.848 18.2647 21.973 19.1939 23.29 19.7481C23.7556 19.9101 24.245 19.9929 24.738 19.9931C25.0283 19.9896 25.3168 19.9476 25.596 19.8681L26.163 23.2891C25.263 23.2301 24.358 23.2001 23.462 23.2001ZM21.001 12.5621C21.0805 12.0957 21.4965 11.7626 21.969 11.7871C22.4366 11.7319 22.8666 12.0498 22.951 12.5131C22.9385 12.7564 22.8282 12.9843 22.6452 13.1452C22.4622 13.306 22.2219 13.386 21.979 13.3671C21.7407 13.3995 21.4998 13.3311 21.3141 13.1783C21.1284 13.0255 21.015 12.8021 21.001 12.5621ZM17.001 9.44406C17.0805 8.97766 17.4965 8.64459 17.969 8.66906C18.4366 8.61392 18.8666 8.9318 18.951 9.39506C18.9385 9.63839 18.8282 9.86634 18.6452 10.0272C18.4622 10.188 18.2219 10.268 17.979 10.2491C17.7407 10.2815 17.4998 10.2131 17.3141 10.0603C17.1284 9.90745 17.015 9.68411 17.001 9.44406Z" fill="#6A6A6A"/>
</svg>
